<svg width="40" height="40" viewBox="0 0 40 40" fill="none" xmlns="http://www.w3.org/2000/svg">
<g clip-path="url(#clip0_3_201)">
<path fill-rule="evenodd" clip-rule="evenodd" d="M40 13.0233V31.6279C40 32.9842 39.4605 34.2865 38.5023 35.2465C37.5423 36.2046 36.24 36.7442 34.8837 36.7442H5.11628C3.75996 36.7442 2.45771 36.2046 1.49764 35.2465C0.539535 34.2865 0 32.9842 0 31.6279V13.0233C0 10.1972 2.2902 7.90697 5.11628 7.90697H8.80744C9.37857 7.90697 9.89213 7.5591 10.1041 7.03066L10.5599 5.88643C11.1962 4.2976 12.7367 3.25574 14.4483 3.25574H25.5516C27.2632 3.25574 28.8036 4.2976 29.4399 5.88643L29.8958 7.03058C30.1079 7.55896 30.6214 7.9069 31.1925 7.9069H34.8836C37.7098 7.90697 40 10.1972 40 13.0233ZM20 11.6279C14.6084 11.6279 10.2326 16.0037 10.2326 21.3953C10.2326 26.787 14.6084 31.1628 20 31.1628C25.3916 31.1628 29.7674 26.787 29.7674 21.3953C29.7674 16.0037 25.3916 11.6279 20 11.6279ZM20 14.4186C23.8512 14.4186 26.9767 17.5442 26.9767 21.3953C26.9767 25.2465 23.8512 28.3721 20 28.3721C16.1488 28.3721 13.0233 25.2465 13.0233 21.3953C13.0233 17.5442 16.1488 14.4186 20 14.4186Z" fill="#0084FF"/>
</g>
<defs>
<clipPath id="clip0_3_201">
<rect width="40" height="40" fill="white"/>
</clipPath>
</defs>
</svg>
