<svg width="40" height="40" viewBox="0 0 40 40" fill="none" xmlns="http://www.w3.org/2000/svg">
<path d="M3.47501 25.25L8.87501 19.8C8.90013 19.7686 8.9328 19.7442 8.96997 19.7289C9.00713 19.7135 9.04758 19.7079 9.08751 19.7125C9.12783 19.714 9.16744 19.7237 9.20395 19.7409C9.24046 19.758 9.27313 19.7824 9.30001 19.8125L12.9 23.625C13.1327 23.8726 13.4135 24.0701 13.7251 24.2055C14.0368 24.3409 14.3727 24.4113 14.7125 24.4125C15.0523 24.4113 15.3882 24.3409 15.6999 24.2055C16.0115 24.0701 16.2923 23.8726 16.525 23.625L24.25 15.3875C24.305 15.3383 24.3762 15.3111 24.45 15.3111C24.5238 15.3111 24.595 15.3383 24.65 15.3875L36.675 24.7625L38.225 22.75L26.25 13.375C25.7004 12.9477 25.0107 12.7415 24.3168 12.797C23.6228 12.8525 22.9747 13.1657 22.5 13.675L14.7875 21.9125L11.2125 18.1C10.9567 17.8243 10.6475 17.6034 10.3037 17.4508C9.95986 17.2983 9.58862 17.2172 9.21251 17.2125C8.8363 17.2027 8.46215 17.271 8.11363 17.413C7.76511 17.555 7.44978 17.7676 7.18751 18.0375L1.78751 23.4875L3.47501 25.25Z" fill="#0084FF"/>
<path d="M6.15 38.75H33.85C35.1496 38.75 36.3959 38.2338 37.3148 37.3148C38.2338 36.3959 38.75 35.1496 38.75 33.85V6.15C38.75 4.85044 38.2338 3.6041 37.3148 2.68518C36.3959 1.76625 35.1496 1.25 33.85 1.25H6.15C4.85044 1.25 3.60411 1.76625 2.68518 2.68518C1.76625 3.6041 1.25 4.85044 1.25 6.15V33.85C1.25 35.1496 1.76625 36.3959 2.68518 37.3148C3.60411 38.2338 4.85044 38.75 6.15 38.75ZM33.85 3.75C34.4865 3.75 35.097 4.00286 35.5471 4.45294C35.9971 4.90303 36.25 5.51348 36.25 6.15V33.85C36.25 34.1652 36.1879 34.4773 36.0673 34.7684C35.9467 35.0596 35.7699 35.3242 35.5471 35.5471C35.3242 35.7699 35.0596 35.9467 34.7684 36.0673C34.4773 36.1879 34.1652 36.25 33.85 36.25H6.15C5.83483 36.25 5.52274 36.1879 5.23156 36.0673C4.94038 35.9467 4.6758 35.7699 4.45294 35.5471C4.23008 35.3242 4.0533 35.0596 3.93269 34.7684C3.81208 34.4773 3.75 34.1652 3.75 33.85V6.15C3.75 5.83483 3.81208 5.52274 3.93269 5.23156C4.0533 4.94038 4.23008 4.6758 4.45294 4.45294C4.6758 4.23008 4.94038 4.0533 5.23156 3.93269C5.52274 3.81208 5.83483 3.75 6.15 3.75H33.85Z" fill="#0084FF"/>
<path d="M14.5875 14.7875C13.2068 14.7875 12.0875 13.6682 12.0875 12.2875C12.0875 10.9068 13.2068 9.78751 14.5875 9.78751C15.9682 9.78751 17.0875 10.9068 17.0875 12.2875C17.0875 13.6682 15.9682 14.7875 14.5875 14.7875Z" fill="#0084FF"/>
<path d="M37.5 24.375L25.5875 14.7875L23.3875 14.525L16.175 22.225C16.175 22.225 14.925 23.9375 13.8625 22.7625L10.275 18.95C10.275 18.95 9.5625 17.3875 8.0375 18.95C6.5125 20.5125 2.5 25.625 2.5 25.625L2.5875 34.6625C2.5875 34.6625 2.9625 37.5 6.6375 37.5C10.3125 37.5 34.1375 37.1125 34.1375 37.1125C34.1375 37.1125 37.5 37.9375 37.5 33.85C37.5 29.7625 37.5 24.375 37.5 24.375Z" fill="#0084FF"/>
</svg>
