<svg width="40" height="40" viewBox="0 0 40 40" fill="none" xmlns="http://www.w3.org/2000/svg">
<path d="M19.9998 25.4545C24.3497 25.4545 27.8888 21.9158 27.8888 17.5612L27.8641 7.86424C27.8641 3.52776 24.3362 0 19.9998 0C15.6636 0 12.1359 3.52776 12.1359 7.85976L12.1113 17.5659C12.1113 21.9158 15.6499 25.4545 19.9998 25.4545Z" fill="#0084FF"/>
<path d="M33.9496 18.783C33.9496 17.7788 33.1354 16.9648 32.1314 16.9648C31.1273 16.9648 30.3132 17.7788 30.3132 18.783C30.3132 24.4475 25.7219 29.0585 20.0652 29.0942C20.0433 29.0933 20.0219 29.0909 19.9997 29.0909C19.9774 29.0909 19.9562 29.0933 19.9342 29.0942C14.2779 29.0587 9.68678 24.4475 9.68678 18.783C9.68678 17.7788 8.8726 16.9648 7.8686 16.9648C6.86448 16.9648 6.05042 17.7788 6.05042 18.783C6.05042 25.8584 11.3459 31.7201 18.1816 32.6138V36.3636H14.1818C13.1777 36.3636 12.3636 37.1777 12.3636 38.1818C12.3636 39.1859 13.1777 40 14.1818 40H25.8184C26.8224 40 27.6366 39.1859 27.6366 38.1818C27.6366 37.1777 26.8224 36.3636 25.8184 36.3636H21.8179V32.6138C28.6539 31.72 33.9496 25.8584 33.9496 18.783Z" fill="#0084FF"/>
</svg>
