<svg width="40" height="40" viewBox="0 0 40 40" fill="none" xmlns="http://www.w3.org/2000/svg">
<g clip-path="url(#clip0_3_238)">
<path d="M36.2869 5.69225L31.9572 35.0417C31.8212 35.8764 31.4391 36.6516 30.86 37.268C30.2809 37.8844 29.531 38.314 28.7064 38.5018C27.8817 38.6897 27.0198 38.6271 26.2308 38.3223C25.4419 38.0175 24.7618 37.4842 24.2777 36.7907L17.2409 26.3547L5.02765 23.3116C4.20168 23.1047 3.45753 22.653 2.89274 22.0157C2.32795 21.3785 1.96888 20.5855 1.86261 19.7406C1.75633 18.8958 1.90781 18.0386 2.29719 17.2813C2.68656 16.5241 3.29566 15.9021 4.04463 15.497L30.1432 1.39043C30.8304 1.04612 31.5979 0.894007 32.3644 0.950204C33.1309 1.0064 33.868 1.26881 34.4976 1.70966C35.1272 2.15051 35.6259 2.75339 35.9409 3.45448C36.2558 4.15556 36.3754 4.92877 36.2869 5.69225Z" fill="#0084FF"/>
</g>
<defs>
<clipPath id="clip0_3_238">
<rect width="40" height="40" fill="white"/>
</clipPath>
</defs>
</svg>
