<svg width="40" height="40" viewBox="0 0 40 40" fill="none" xmlns="http://www.w3.org/2000/svg">
<g clip-path="url(#clip0_3_198)">
<path d="M12.6882 16.5647C12.6882 23.3961 12.6882 30.2294 12.6882 37.0647C12.6882 38.6941 12.1412 39.2471 10.5176 39.2588H6.98823H3.24705H2.75881C1.17646 39.2471 0.588226 38.6294 0.588226 37.0588V23.4235C0.588226 21.1412 0.588226 18.851 0.588226 16.5529C0.588226 14.9529 1.17646 14.3588 2.75881 14.3588H10.5118C12.1176 14.3588 12.6882 14.9353 12.6882 16.5647Z" fill="#0084FF"/>
<path d="M39.4118 25.2353C39.3442 25.8423 39.1124 26.4193 38.7414 26.9044C38.3703 27.3894 37.874 27.7642 37.3059 27.9882L37.4824 28.1706C37.7963 28.5169 38.0343 28.925 38.1812 29.3687C38.3281 29.8124 38.3806 30.2819 38.3353 30.7471C38.2462 31.473 37.9258 32.1509 37.4216 32.6806C36.9173 33.2103 36.2559 33.5636 35.5353 33.6882C35.8419 34.028 36.0745 34.4277 36.2183 34.8622C36.3621 35.2966 36.414 35.7562 36.3706 36.2118C36.2742 37.0601 35.8654 37.8422 35.2237 38.4055C34.5821 38.9689 33.7537 39.2731 32.9 39.2588H28.953H28.8353H28.3353C26.3177 39.2588 24.2177 39.2588 22.1824 39.2588H21.9824C19.1959 39.1786 16.4424 38.6338 13.8353 37.6471C13.8578 37.4518 13.8676 37.2553 13.8647 37.0588C13.8647 30.2196 13.8647 23.3863 13.8647 16.5588C13.8667 16.2535 13.8431 15.9485 13.7941 15.6471L14.5647 14.9765C14.8118 14.7706 15.0588 14.5588 15.3 14.3412C16.9177 12.9235 18.5412 11.3588 19.1059 9.18823C19.3062 8.29615 19.4088 7.38489 19.4118 6.47059C19.4118 6 19.4471 5.52941 19.4824 5.0647C19.4824 4.84706 19.5177 4.63529 19.5353 4.41764C19.5596 3.75653 19.6542 3.09988 19.8177 2.45882C20.1471 1.35294 21.1353 0.723527 22.5235 0.723527C23.1325 0.694703 23.7351 0.858125 24.246 1.19066C24.757 1.5232 25.1504 2.00801 25.3706 2.57647C26.416 5.22801 26.6634 8.12732 26.0824 10.9176C25.8294 12.0941 25.4941 13.2706 25.1059 14.3882C24.9353 14.9412 24.7588 15.5 24.5941 16.0588H34.5353C35.3805 16.0497 36.1994 16.3524 36.8353 16.9091C37.4713 17.4659 37.8797 18.2375 37.9824 19.0765C38.0261 19.542 37.9723 20.0116 37.8244 20.4552C37.6766 20.8988 37.4379 21.3067 37.1235 21.6529L37.0647 21.7176C37.6362 21.8954 38.1499 22.2223 38.553 22.6647C38.868 23.0092 39.1073 23.416 39.2552 23.8588C39.4032 24.3016 39.4565 24.7706 39.4118 25.2353Z" fill="#0084FF"/>
</g>
<defs>
<clipPath id="clip0_3_198">
<rect width="40" height="40" fill="white"/>
</clipPath>
</defs>
</svg>
